<svg xmlns="http://www.w3.org/2000/svg" width="44" height="44" viewBox="0 0 44 44"><defs><style>.a{fill:none;}.b{fill:#5ac7ff;}</style></defs><g transform="translate(-470 -678)"><rect class="a" width="44" height="44" transform="translate(470 678)"/><g transform="translate(472 682)"><path class="b" d="M38,17H2a2,2,0,0,1-2-2v4a2,2,0,0,0,2,2H38a2,2,0,0,0,2-2V15A2,2,0,0,1,38,17Z" transform="translate(0 13)"/><path class="b" d="M38,2H2A2,2,0,0,0,0,4V24a2,2,0,0,0,2,2H38a2,2,0,0,0,2-2V4A2,2,0,0,0,38,2ZM4,18V10A4,4,0,0,0,8,6h7.958a8.933,8.933,0,0,0,0,16H8A4,4,0,0,0,4,18Zm20.042,4a8.933,8.933,0,0,0,0-16H32a4,4,0,0,0,4,4v8a4,4,0,0,0-4,4Z"/></g></g></svg>