<svg xmlns="http://www.w3.org/2000/svg" width="44" height="44" viewBox="0 0 44 44"><defs><style>.a{fill:none;}.b{fill:#5ac7ff;}</style></defs><g transform="translate(-470 -678)"><rect class="a" width="44" height="44" transform="translate(470 678)"/><g transform="translate(448.725 680)"><g transform="translate(25.274)"><g transform="translate(0)"><path class="b" d="M54.365,281.778a8.7,8.7,0,0,1-7.041,3.593H43.267a3.241,3.241,0,0,1-3.047-2.135,10.289,10.289,0,0,1-1.639-.648,11.034,11.034,0,0,1-3.06-2.265A13.067,13.067,0,0,0,25.274,293.08v.817a2.033,2.033,0,0,0,2.033,2.033H58.843a2.033,2.033,0,0,0,2.033-2.033v-.817A13.057,13.057,0,0,0,54.365,281.778Z" transform="translate(-25.274 -255.93)"/><path class="b" d="M93.922,20.2a2.314,2.314,0,0,0,2.028-1.2l.032.084.009.025a9.033,9.033,0,0,0,5.093,5.363,3.237,3.237,0,0,1,2.744-1.517h4.057a2.271,2.271,0,0,0,1.111-.3,4.585,4.585,0,0,0,1.311-1.514A11.7,11.7,0,0,0,111.321,19a2.326,2.326,0,0,0,.64.737v.995a4.081,4.081,0,0,1-4.076,4.076h-4.057a1.389,1.389,0,0,0,0,2.777h4.057a6.861,6.861,0,0,0,6.854-6.854v-.995a2.311,2.311,0,0,0,.926-1.852V12.1a2.311,2.311,0,0,0-.961-1.877,11.1,11.1,0,0,0-22.135,0,2.311,2.311,0,0,0-.961,1.877v5.793A2.315,2.315,0,0,0,93.922,20.2Zm9.714-17.427a8.337,8.337,0,0,1,8.284,7.5,2.323,2.323,0,0,0-.65.8c-1.31-3.419-4.235-5.8-7.634-5.8-3.472,0-6.35,2.462-7.629,5.785L96,11.081a2.323,2.323,0,0,0-.65-.8A8.337,8.337,0,0,1,103.636,2.777Z" transform="translate(-85.836)"/></g></g></g></g></svg>