<svg xmlns="http://www.w3.org/2000/svg" width="44" height="44" viewBox="0 0 44 44"><defs><style>.a{fill:none;}.b{fill:#5ac7ff;}</style></defs><g transform="translate(-470 -678)"><rect class="a" width="44" height="44" transform="translate(470 678)"/><g transform="translate(472 665.01)"><g transform="translate(0 15.99)"><g transform="translate(0 0)"><path class="b" d="M39.8,35.263l-4.332-6.381L39.8,22.5a1.171,1.171,0,0,0-.6-1.761L25.058,16.052a1.165,1.165,0,0,0-1.346.461L20,22.082l-3.712-5.569a1.165,1.165,0,0,0-1.346-.461L.8,20.74A1.171,1.171,0,0,0,.2,22.5l4.332,6.381L.2,35.263a1.171,1.171,0,0,0,.6,1.761l14.141,4.687a1.171,1.171,0,0,0,1.346-.461L20,35.682l3.712,5.569a1.171,1.171,0,0,0,1.346.461L39.2,37.025a1.171,1.171,0,0,0,.6-1.761ZM20,32.335,9.642,28.882,20,25.43l10.358,3.453Z" transform="translate(0 -15.99)"/></g></g><g transform="translate(4.765 39.907)"><path class="b" d="M82.036,326.166A3.513,3.513,0,0,1,78,324.781l-1.762-2.643-1.762,2.643a3.512,3.512,0,0,1-4.043,1.382L61,323.021v6.841a1.171,1.171,0,0,0,.8,1.111l14.056,4.685a1.056,1.056,0,0,0,.127.035,0,0,0,0,1,0,0h0a1.22,1.22,0,0,0,.248.026,1.2,1.2,0,0,0,.262-.03c.039-.009.077-.019.114-.032l14.057-4.686a1.171,1.171,0,0,0,.8-1.111v-6.841Z" transform="translate(-61.002 -322.138)"/></g></g></g></svg>