<svg xmlns="http://www.w3.org/2000/svg" width="44" height="44" viewBox="0 0 44 44"><defs><style>.a{fill:none;}.b{fill:#5ac7ff;}</style></defs><g transform="translate(-470 -678)"><rect class="a" width="44" height="44" transform="translate(470 678)"/><g transform="translate(472 678.186)"><g transform="translate(0 2.814)"><path class="b" d="M38.775,138.617l-16.969-7.4a5.124,5.124,0,0,0-3.565,0l-17.015,7.4a2.14,2.14,0,0,0-1.1,2.663l4.532,12.546a3.017,3.017,0,0,0,2.613,1.888H32.729a3.017,3.017,0,0,0,2.613-1.888l4.533-12.546A2.142,2.142,0,0,0,38.775,138.617Z" transform="translate(0 -116.354)"/><path class="b" d="M60.87,88.927c2.15-.731,10.062-4.4,10.062-4.4a5.8,5.8,0,0,1,4.125,0s7.76,3.363,9.8,4.27c1.327.59,1.327-.565,1.327-.565V81.306a1.679,1.679,0,0,0-1.636-1.71H61.393a1.679,1.679,0,0,0-1.636,1.71v7.046S59.746,89.309,60.87,88.927Zm4.215-7.506a.5.5,0,0,1,.485-.507h14.8a.5.5,0,0,1,.485.507v.22a.5.5,0,0,1-.485.507H65.57a.5.5,0,0,1-.485-.507Z" transform="translate(-52.971 -70.876)"/><path class="b" d="M102.563,10.239h13.8A1.677,1.677,0,0,0,118,8.573l0-4.049a1.679,1.679,0,0,0-1.636-1.71h-13.8a1.68,1.68,0,0,0-1.637,1.71l0,4.049A1.676,1.676,0,0,0,102.563,10.239Zm11.947-5.207a1.663,1.663,0,0,1,1.625,1.7,1.627,1.627,0,1,1-3.251,0A1.663,1.663,0,0,1,114.511,5.031Zm-5.084,0a1.663,1.663,0,0,1,1.625,1.7,1.627,1.627,0,1,1-3.251,0A1.663,1.663,0,0,1,109.427,5.031Zm-5.084,0a1.663,1.663,0,0,1,1.625,1.7,1.627,1.627,0,1,1-3.251,0A1.663,1.663,0,0,1,104.343,5.031Z" transform="translate(-89.465 -2.814)"/></g></g></g></svg>