<svg xmlns="http://www.w3.org/2000/svg" width="44" height="44" viewBox="0 0 44 44"><defs><style>.a{fill:none;}.b{fill:#5ac7ff;}</style></defs><g transform="translate(-470 -678)"><rect class="a" width="44" height="44" transform="translate(470 678)"/><path class="b" d="M57.249,22.854,69.541,25.77V22.709l-3.554-2.53a11.555,11.555,0,0,0-.158-2.716,2.185,2.185,0,0,0-2.424,0c-.047.265-.083.531-.112.8l-1.82-1.3a11.564,11.564,0,0,0-.146-2.907,2.185,2.185,0,0,0-2.424,0q-.088.489-.132.984L57.208,13.93q-.167-5.057-.66-10.113S56.173,0,53.413,0s-3.134,3.817-3.134,3.817q-.5,5.056-.66,10.113l-1.564,1.113q-.045-.494-.132-.984a2.185,2.185,0,0,0-2.424,0,11.56,11.56,0,0,0-.146,2.907l-1.82,1.3c-.029-.267-.064-.534-.112-.8a2.186,2.186,0,0,0-2.424,0,11.555,11.555,0,0,0-.158,2.716l-3.554,2.53V25.77l12.291-2.917q.139,5.75.7,11.5s.022.214.082.55L45.353,38.47V40l6.609-1.569a2.134,2.134,0,0,0,2.9,0L61.474,40V38.47L56.466,34.9c.06-.336.082-.55.082-.55Q57.11,28.6,57.249,22.854Z" transform="translate(438.214 680.5)"/></g></svg>