<svg xmlns="http://www.w3.org/2000/svg" width="44" height="44" viewBox="0 0 44 44"><defs><style>.a{fill:none;}.b{fill:#5ac7ff;}</style></defs><g transform="translate(-470 -678)"><rect class="a" width="44" height="44" transform="translate(470 678)"/><g transform="translate(472 679.994)"><g transform="translate(0 0.006)"><path class="b" d="M99.69,86.835a12.857,12.857,0,1,0,12.857,12.856A12.857,12.857,0,0,0,99.69,86.835Zm6.861,14.526H99.69a1.7,1.7,0,0,1-1.669-1.669v-9.44a1.669,1.669,0,0,1,3.337,0v7.771h5.192a1.669,1.669,0,0,1,0,3.337Z" transform="translate(-79.69 -79.693)"/><path class="b" d="M20,.006a20,20,0,1,0,20,20A20.023,20.023,0,0,0,20,.006Zm0,35.441A15.442,15.442,0,1,1,35.442,20.006,15.46,15.46,0,0,1,20,35.447Z" transform="translate(0 -0.006)"/></g></g></g></svg>